<?xml version="1.0" encoding="utf-8"?>
<!-- Generator: Adobe Illustrator 24.3.0, SVG Export Plug-In . SVG Version: 6.00 Build 0)  -->
<svg version="1.1" id="Layer_1" xmlns="http://www.w3.org/2000/svg" xmlns:xlink="http://www.w3.org/1999/xlink" x="0px" y="0px"
	 viewBox="0 0 792 792" style="enable-background:new 0 0 792 792;" xml:space="preserve">
<style type="text/css">
	.st0{fill:#070406;}
	.st1{fill:#7F5B89;}
	.st2{fill:#A175AF;}
	.st3{fill:#232321;}
	.st4{fill:none;}
	.st5{font-family:'SaltyFeathers-Regular';}
	.st6{font-size:159.8724px;}
</style>
<polygon class="st0" points="651.46,339.46 651.86,340.01 652.21,340.28 652.03,340.62 652.04,340.86 653.11,341.78 649.85,346.86 
	648.19,349.34 645.53,352.81 644.53,354.6 644.16,355.71 643.97,356.97 643.9,357.53 643.65,362.3 642.95,366.04 642.06,369.07 
	642.06,369.45 642.38,369.88 642.86,369.88 643.87,368.68 645.73,366.71 647.42,365.28 648.77,364.27 652.02,362.1 653.26,361.1 
	653.89,360.44 655.06,358.73 656.1,356.18 660.69,346.26 660.82,346.12 661.95,346.66 662.43,346.56 662.51,346.2 662.93,346.46 
	663.84,346.48 664.48,345.44 666.1,342.07 672.69,330.34 676.83,324.19 681.01,318.43 681.08,318.15 681.58,318.12 682,317.61 
	682.81,317.05 682.48,316.39 683.29,316.41 683.38,316.25 683.38,315.85 683.11,315.35 683.87,315.31 684.04,315.03 683.56,314.3 
	683.64,314.17 684.44,314.2 684.81,313.6 684.8,313.2 685.04,313.22 685.63,312.23 686.18,312.46 686.67,312.43 687.38,311.22 
	687.39,310.88 694.38,298.8 701.18,287.22 704.49,281.35 708.85,273.79 711.66,268.87 715.04,262.63 718.71,256.22 723.68,247.17 
	728.99,237.26 737.13,222.15 749.37,198.67 749.37,197.2 749.22,196.35 748.93,195.55 747.86,194.14 746.7,193.12 745.76,192.46 
	744.6,191.72 743.75,191.34 742.77,190.9 741.71,190.58 740.59,190.36 739.67,190.36 738.59,190.61 737.38,191.35 736.31,192.5 
	735.01,194.45 731.1,200.68 723.5,212.56 712.04,230.83 702.34,246.38 674.74,293.6 670.33,301.13 670.08,301.18 669.41,302.31 
	669.52,302.58 669.99,302.95 669.99,303.64 669.61,304.16 670.09,304.69 669.77,305.12 669.51,305.14 669.21,304.93 668.9,305.28 
	668.94,305.52 669.21,305.87 669.1,306.01 668.43,305.92 668.34,306.08 668.35,306.29 668.82,306.63 668.84,307.08 668.37,307.17 
	667.9,307 667.66,307.17 667.8,307.45 668.16,307.64 668.14,308.03 667.68,308.12 667.43,307.99 667.27,308.11 667.27,308.33 
	667.28,308.75 667.52,308.96 667.42,309.1 667.09,309.11 667.07,310.12 666.46,311.26 665.49,313.42 663.5,318.01 660.03,324.89 
	656.68,330.68 653.71,335.52 651.42,338.76 651.35,339.23 "/>
<polyline class="st1" points="749.37,198.09 749.37,197.2 749.22,196.35 748.93,195.55 747.86,194.14 746.7,193.12 745.76,192.46 
	744.6,191.72 743.75,191.34 742.77,190.9 741.71,190.58 740.59,190.36 739.67,190.36 738.59,190.61 737.61,191.21 749.37,198.09 "/>
<polyline class="st2" points="674.06,303.6 670.34,301.11 670.09,301.17 669.42,302.3 669.53,302.57 670,302.94 670,303.63 
	669.62,304.15 670.1,304.67 669.78,305.11 669.51,305.12 669.22,304.92 668.91,305.27 668.95,305.5 669.22,305.85 669.11,306 
	668.44,305.91 668.35,306.07 668.36,306.27 668.83,306.62 668.84,307.07 668.38,307.15 667.91,306.98 667.67,307.15 667.81,307.44 
	668.17,307.63 668.15,308.02 667.69,308.11 667.44,307.97 667.28,308.09 667.28,308.32 667.29,308.73 667.53,308.95 667.43,309.08 
	667.1,309.09 667.08,310.11 666.46,311.25 665.5,313.41 663.51,318 660.04,324.88 656.68,330.67 653.71,335.51 651.42,338.75 
	651.35,339.22 651.46,339.45 651.87,340.01 652.21,340.27 652.04,340.62 652.04,340.85 653.12,341.77 649.85,346.85 648.2,349.33 
	645.53,352.81 644.53,354.6 644.16,355.7 643.97,356.97 643.9,357.53 643.65,362.29 642.95,366.04 642.06,369.07 642.06,369.45 
	642.38,369.88 642.86,369.88 643.87,368.68 645.73,366.71 647.42,365.28 648.78,364.27 652.03,362.09 653.26,361.1 653.89,360.44 
	655.06,358.72 656.1,356.17 660.7,346.25 660.82,346.11 661.96,346.65 662.44,346.55 662.52,346.2 662.93,346.45 663.84,346.48 
	664.48,345.43 666.11,342.06 672.7,330.32 676.83,324.18 681.02,318.42 681.09,318.14 681.58,318.11 682.01,317.6 682.82,317.04 
	682.48,316.38 683.3,316.39 683.39,316.24 683.39,315.84 683.11,315.34 683.88,315.3 684.05,315.01 683.57,314.29 683.65,314.15 
	684.45,314.19 684.81,313.59 684.81,313.19 685.05,313.2 685.64,312.21 686.18,312.44 686.67,312.41 687.39,311.21 686.08,310.66 
	674.06,303.6 "/>
<path class="st3" d="M647.45,361.59l-0.33-0.07l-0.28-0.15l-0.17-0.13l-0.18-0.26l-0.06-0.23l-0.09-0.89l-0.2-2.47
	c-0.08-0.63-0.15-1.14-0.18-1.65c-0.03-0.47-0.12-0.9-0.11-1.34c0.01-0.28-0.03-0.58,0.04-0.87c0.08-0.33,0.2-0.68,0.28-1.05
	c0.03-0.17,0.02-0.14,0.21-0.55c0.06-0.12,0.15-0.25,0.12-0.29c0,0,0-0.01-0.01-0.01c-0.04,0.02-0.22,0.18-0.39,0.41
	c-0.18,0.23-0.35,0.51-0.61,0.84c-0.42,0.55-1.09,1.91-1.32,2.72c-0.21,0.75-0.24,1.49-0.28,2.2c-0.07,1.19-0.1,2.27-0.1,2.68
	l-0.11,1.48l-0.24,1.4c-0.37,2.36-0.28,1.84-0.51,2.86c-0.11,0.49-0.71,2.06-0.88,3.07c-0.02,0.15,0.04,0.42,0.21,0.51l0.07,0.05
	c0.65,0.33,1.12-0.73,1.68-1.34c0.54-0.6,1.11-1.21,1.65-1.75c0.41-0.4,0.77-0.75,1.23-1.07c1.03-0.72,1.99-1.53,3.42-2.48
	c1.23-0.82,2.42-1.49,3.05-2.23l0.56-0.58l0.64-0.81c0.41-0.82,1.12-2.03,1.17-2.54c0-0.01,0.01-0.02,0-0.02
	c-0.14,0.12-0.36,0.45-0.68,0.77c-0.39,0.39-0.94,0.84-1.46,1.16c-0.33,0.2-0.67,0.39-0.92,0.49c-0.29,0.12-0.72,0.34-1.25,0.55
	c-0.4,0.16-0.87,0.3-1.3,0.49C649.03,360.98,648.18,361.63,647.45,361.59z"/>
<circle class="st0" cx="647.83" cy="359.89" r="0.55"/>
<rect x="42.63" y="309.3" class="st4" width="674.68" height="139.18"/>
<text transform="matrix(1 0 0 1 42.6337 384.9204)" class="st5 st6">Song Writer</text>
</svg>
