<?xml version="1.0" standalone="no"?>
<!DOCTYPE svg PUBLIC "-//W3C//DTD SVG 20010904//EN"
 "http://www.w3.org/TR/2001/REC-SVG-20010904/DTD/svg10.dtd">
<svg version="1.0" xmlns="http://www.w3.org/2000/svg"
 width="648.000000pt" height="648.000000pt" viewBox="0 0 648.000000 648.000000"
 preserveAspectRatio="xMidYMid meet">
<metadata>
Created by potrace 1.11, written by Peter Selinger 2001-2013
</metadata>
<g transform="translate(0.000000,648.000000) scale(0.100000,-0.100000)"
fill="#000000" stroke="none">
<path d="M3889 4764 c-35 -23 -57 -78 -69 -181 -6 -48 -13 -97 -15 -108 -2
-11 -4 -29 -4 -39 -1 -14 -8 -9 -30 21 -77 106 -195 150 -408 151 -65 0 -143
-3 -173 -8 -128 -19 -147 -22 -190 -32 -25 -5 -56 -12 -70 -14 -64 -11 -337
-90 -478 -138 -264 -89 -472 -178 -782 -332 -694 -346 -1113 -675 -1220 -959
-16 -42 -23 -83 -24 -140 -1 -105 27 -164 127 -267 137 -142 305 -252 776
-510 29 -16 81 -46 114 -67 l60 -39 -151 -75 c-261 -131 -405 -229 -544 -367
-106 -105 -147 -182 -153 -283 -12 -212 118 -370 360 -438 63 -18 108 -23 210
-23 72 -1 150 2 175 6 95 16 116 20 133 29 9 5 17 8 17 5 0 -9 105 31 181 68
189 91 315 222 345 356 45 205 -53 404 -320 648 -32 29 -57 54 -55 56 23 17
356 129 554 186 181 52 464 128 504 136 13 3 74 19 135 36 126 35 211 56 273
67 48 9 49 7 33 -49 -21 -71 -100 -387 -116 -465 -25 -124 -24 -120 -39 -210
-24 -151 -28 -427 -6 -515 28 -114 91 -208 163 -246 18 -10 61 -19 95 -20 77
-4 139 25 216 99 63 62 173 207 246 327 28 47 56 92 61 100 89 145 308 591
528 1075 107 234 228 447 261 460 68 26 93 -266 56 -655 -11 -115 -7 -346 8
-387 41 -118 135 -153 259 -94 164 78 443 499 675 1016 147 328 288 661 418
980 96 238 119 287 243 508 112 201 120 228 84 276 -14 19 -30 27 -61 29 -67
5 -85 -21 -185 -273 -48 -121 -119 -299 -157 -395 -39 -96 -91 -227 -116 -290
-25 -63 -51 -128 -58 -145 -8 -16 -46 -106 -85 -200 -362 -858 -680 -1419
-821 -1450 -36 -8 -45 -3 -71 48 -28 53 -33 183 -12 307 26 157 28 184 28 345
-2 216 -36 364 -103 442 -53 62 -158 57 -239 -12 -72 -61 -184 -266 -362 -665
-21 -47 -51 -114 -68 -150 -17 -36 -71 -157 -122 -270 -219 -488 -385 -780
-502 -884 -57 -50 -89 -61 -149 -51 -162 28 -197 313 -99 806 28 137 22 115
80 329 71 265 128 444 260 815 45 127 131 376 190 555 60 179 132 386 160 460
164 427 178 481 171 625 -1 22 -9 50 -19 63 -24 31 -87 39 -123 16z m-352
-267 c45 -12 109 -45 128 -67 15 -17 20 -36 20 -84 0 -79 -43 -171 -165 -356
-102 -154 -114 -192 -77 -235 19 -23 31 -27 75 -28 37 -1 57 4 72 18 14 13 20
14 20 5 0 -8 -69 -223 -154 -479 -85 -257 -166 -505 -180 -552 l-26 -85 -233
-62 c-127 -35 -240 -64 -249 -67 -50 -12 -536 -151 -618 -177 -201 -63 -405
-130 -471 -154 l-68 -24 -83 53 c-46 30 -103 65 -128 79 -108 61 -461 267
-518 303 -200 125 -338 258 -356 342 -19 86 57 217 218 378 186 186 415 348
777 553 541 305 1236 578 1601 629 24 3 63 9 88 13 51 8 293 6 327 -3z m-1890
-2501 c149 -112 300 -309 323 -420 42 -210 -132 -416 -441 -519 -120 -40 -222
-56 -334 -52 -128 5 -157 10 -230 44 -118 56 -178 148 -178 278 0 64 5 82 34
141 47 92 198 243 344 342 91 62 394 229 417 230 3 0 33 -20 65 -44z"/>
</g>
</svg>
