<?xml version="1.0" standalone="no"?>
<!DOCTYPE svg PUBLIC "-//W3C//DTD SVG 20010904//EN"
 "http://www.w3.org/TR/2001/REC-SVG-20010904/DTD/svg10.dtd">
<svg version="1.0" xmlns="http://www.w3.org/2000/svg"
 width="2998.000000pt" height="2998.000000pt" viewBox="0 0 2998.000000 2998.000000"
 preserveAspectRatio="xMidYMid meet">
<metadata>
Created by potrace 1.11, written by Peter Selinger 2001-2013
</metadata>
<g transform="translate(0.000000,2998.000000) scale(0.100000,-0.100000)"
fill="#000000" stroke="none">
<path d="M29502 18565 c-53 -23 -128 -57 -167 -75 -78 -36 -484 -218 -705
-317 -80 -35 -174 -78 -210 -95 -36 -17 -173 -80 -305 -140 -259 -118 -305
-140 -405 -186 -36 -16 -150 -69 -255 -117 -104 -48 -226 -104 -270 -124 -44
-21 -109 -50 -145 -66 -36 -17 -195 -94 -355 -174 -159 -79 -555 -275 -880
-436 -324 -161 -783 -388 -1020 -506 -236 -117 -434 -212 -438 -211 -17 5 -68
-30 -66 -46 3 -24 -11 -52 -26 -52 -8 0 -11 -8 -8 -20 6 -23 -16 -27 -35 -8
-10 10 -14 8 -19 -10 -4 -17 -8 -20 -19 -11 -18 15 -33 3 -27 -21 5 -21 -11
-28 -22 -10 -3 6 -13 10 -21 10 -11 0 -13 -6 -9 -20 7 -21 -9 -28 -21 -9 -4 7
-22 -5 -48 -31 -47 -48 -288 -206 -517 -338 -205 -118 -575 -300 -747 -367
-77 -30 -98 -51 -88 -91 4 -14 2 -24 -4 -24 -6 0 -8 -15 -4 -37 l6 -38 -179
-78 c-98 -42 -229 -95 -291 -117 -167 -59 -206 -88 -309 -227 -79 -108 -189
-227 -285 -311 -36 -31 -49 -64 -29 -76 5 -4 52 5 104 19 111 30 216 42 387
44 141 2 203 16 280 65 349 221 503 316 510 316 4 0 15 -12 25 -26 10 -15 22
-23 31 -20 8 3 14 1 14 -5 0 -5 11 -14 25 -21 22 -10 38 -3 147 59 68 39 200
110 293 158 94 48 197 103 231 121 123 66 664 285 717 289 15 1 41 3 57 4 18
1 30 6 30 15 0 9 8 12 25 8 18 -3 25 0 25 12 0 10 8 15 22 13 17 -1 24 4 26
20 3 19 6 21 22 11 15 -10 23 -9 39 6 12 11 21 16 21 12 0 -4 9 -2 21 4 16 9
24 8 39 -5 19 -17 43 -11 80 20 8 7 229 120 490 250 783 391 1456 731 1610
815 58 32 197 105 310 163 273 139 523 272 825 437 28 15 111 60 185 100 74
40 158 85 185 100 28 15 133 72 235 127 289 156 315 170 485 266 88 50 185
104 215 120 30 17 147 82 260 145 113 63 241 135 285 159 102 56 128 92 133
185 5 80 -22 172 -76 263 -110 183 -199 212 -390 130z"/>
<path d="M11405 17086 c-16 -7 -40 -24 -52 -37 -29 -32 -59 -128 -68 -212 -3
-37 -8 -76 -10 -85 -1 -9 -6 -39 -9 -67 -4 -27 -13 -84 -21 -125 -8 -41 -16
-86 -19 -100 -12 -72 -83 -331 -146 -530 -61 -193 -444 -1358 -470 -1430 -28
-77 -199 -668 -225 -775 -29 -123 -95 -416 -99 -435 -2 -14 -11 -65 -20 -115
-8 -49 -18 -112 -21 -140 -4 -27 -8 -61 -10 -74 -16 -94 -21 -304 -11 -416 21
-232 104 -397 237 -470 48 -27 63 -30 144 -30 97 0 131 10 202 58 216 145 532
637 875 1361 39 83 97 206 129 274 33 68 59 125 59 127 0 2 27 60 60 129 33
70 60 129 60 131 0 8 185 381 230 463 48 90 117 189 136 196 20 8 41 -29 60
-109 13 -53 17 -118 17 -265 1 -181 -1 -232 -21 -460 -3 -47 -7 -184 -7 -305
1 -207 2 -223 23 -269 53 -118 118 -161 227 -154 127 8 253 99 402 290 161
206 318 467 492 815 50 100 91 184 91 186 0 3 22 52 48 109 57 120 57 120 155
343 41 94 93 215 116 270 24 55 48 114 56 130 7 17 22 50 33 75 11 25 54 131
97 235 203 499 194 478 269 635 52 110 69 141 166 310 138 243 150 274 123
339 -25 60 -51 81 -99 81 -74 0 -124 -31 -158 -98 -11 -23 -346 -860 -469
-1172 -22 -58 -44 -109 -49 -115 -4 -5 -8 -14 -8 -21 0 -11 -163 -405 -194
-469 -8 -16 -47 -104 -87 -195 -39 -91 -93 -212 -120 -269 -27 -57 -49 -106
-49 -108 0 -7 -244 -495 -279 -558 -15 -27 -39 -72 -54 -100 -156 -284 -338
-526 -424 -562 -49 -20 -68 -9 -100 55 -26 52 -28 66 -28 172 0 106 7 197 20
260 8 36 25 156 32 220 6 56 8 205 3 315 -3 91 -28 242 -51 314 -57 179 -129
247 -253 239 -155 -10 -248 -110 -416 -443 -97 -192 -156 -317 -272 -575 -20
-44 -96 -213 -145 -320 -14 -30 -51 -113 -83 -185 -266 -599 -469 -964 -635
-1143 -70 -75 -122 -103 -188 -97 -108 9 -169 77 -203 227 -25 112 -24 389 1
528 2 14 10 64 21 133 10 64 15 95 25 147 20 100 87 373 129 525 23 83 43 157
45 165 16 67 254 786 280 845 7 17 43 118 80 225 37 107 81 238 100 290 18 52
65 194 105 315 95 290 167 493 242 678 133 333 184 522 175 656 -6 96 -19 133
-54 156 -34 22 -102 28 -138 11z"/>
<path d="M3988 16866 c-1 -2 -57 -6 -123 -10 -131 -7 -136 -8 -305 -37 -189
-32 -535 -123 -740 -194 -41 -15 -82 -28 -90 -30 -8 -2 -71 -24 -140 -49 -121
-45 -136 -51 -190 -74 -14 -6 -83 -35 -155 -65 -237 -100 -630 -289 -830 -401
-44 -24 -102 -56 -130 -71 -221 -121 -573 -353 -715 -471 -280 -234 -411 -388
-485 -573 -95 -232 -52 -397 154 -601 177 -176 421 -333 1041 -673 74 -41 182
-109 178 -112 -2 -2 -82 -43 -178 -92 -337 -170 -555 -316 -725 -489 -156
-157 -207 -263 -206 -424 2 -307 215 -519 591 -585 19 -4 103 -8 185 -10 117
-3 174 0 260 15 481 84 844 351 892 655 8 51 7 168 -2 220 -4 22 -20 72 -36
111 -65 156 -160 285 -336 454 -77 74 -120 122 -111 125 7 2 56 21 108 41 199
75 528 179 820 258 185 50 438 117 455 121 30 6 124 32 280 75 77 22 154 42
170 45 17 2 41 7 53 9 19 4 23 2 17 -12 -82 -215 -44 -436 83 -472 174 -48
310 73 412 366 l22 62 56 -16 c61 -17 259 -22 347 -10 105 15 128 19 134 22 4
3 26 7 50 11 24 3 54 11 68 16 28 10 28 9 8 -101 -3 -14 -8 -60 -11 -102 l-7
-77 39 -38 c21 -21 37 -41 36 -45 -1 -5 2 -8 8 -8 5 0 10 5 10 10 0 6 11 10
24 10 30 0 52 19 148 130 176 203 309 309 470 373 79 32 171 45 192 28 8 -7
24 -44 36 -84 51 -168 117 -243 243 -276 66 -17 222 -11 357 15 14 2 41 7 60
10 19 3 76 14 125 25 223 47 258 55 420 104 119 36 117 36 126 -4 28 -133 107
-178 236 -135 90 30 266 148 417 278 55 47 57 48 81 32 13 -9 40 -16 60 -16
73 0 112 54 102 139 l-6 49 76 61 c68 53 178 121 198 121 28 0 -66 -309 -151
-495 -7 -16 -41 -95 -75 -175 -58 -140 -63 -147 -127 -205 -37 -33 -112 -105
-167 -160 -90 -90 -133 -135 -271 -286 -22 -24 -80 -93 -129 -154 -49 -60 -92
-112 -95 -115 -11 -9 -155 -214 -197 -280 -116 -183 -192 -348 -211 -455 -14
-80 -8 -178 13 -213 50 -83 194 -96 329 -28 124 61 264 207 392 410 58 92 190
343 239 456 15 36 38 88 50 115 12 28 41 100 64 160 23 61 50 130 61 155 10
25 47 123 81 218 l62 172 96 74 c166 127 280 195 451 268 91 39 313 118 332
118 18 0 59 46 63 72 3 16 -3 35 -16 52 -19 25 -27 27 -78 25 -116 -5 -374
-117 -623 -272 -60 -37 -108 -63 -108 -57 0 5 11 39 24 77 70 194 129 430 128
513 0 62 -4 74 -36 106 -29 29 -41 34 -83 34 -78 0 -147 -26 -249 -96 -92 -62
-114 -73 -114 -56 0 19 -69 77 -119 100 -48 22 -63 24 -139 19 -75 -4 -95 -10
-176 -50 -50 -25 -101 -54 -114 -65 -13 -11 -41 -35 -63 -53 -42 -34 -122
-132 -155 -188 -21 -37 -76 -61 -334 -145 -287 -94 -516 -141 -688 -140 -76 0
-97 4 -119 20 -26 19 -58 94 -68 159 -19 114 -45 188 -83 227 -63 68 -223 77
-342 20 -137 -65 -337 -241 -475 -417 -57 -73 -58 -74 -50 -35 13 60 58 149
155 305 131 211 140 227 146 273 13 93 -83 165 -172 127 -65 -27 -141 -153
-203 -335 l-28 -84 -104 -36 c-244 -85 -370 -103 -521 -73 l-75 15 -5 92 c-8
135 -41 199 -123 237 -95 44 -212 12 -250 -68 -17 -36 -28 -45 -75 -62 l-55
-19 53 -1 53 -1 -22 -32 c-12 -18 -23 -34 -24 -36 -1 -1 -94 -27 -206 -56
-267 -71 -346 -92 -450 -122 -47 -13 -95 -27 -105 -29 -64 -15 -408 -113 -439
-125 -16 -6 -30 -11 -30 -10 0 3 -132 -36 -245 -72 -52 -16 -102 -31 -110 -33
-27 -5 -534 -177 -552 -186 -14 -7 -35 2 -90 39 -40 27 -242 147 -448 267
-525 306 -647 387 -793 533 -137 136 -155 213 -82 357 178 353 794 814 1675
1255 364 182 605 286 1005 431 275 99 662 197 856 216 95 10 320 9 381 0 102
-16 189 -60 214 -110 16 -29 16 -112 0 -176 -13 -54 -93 -200 -188 -344 -133
-200 -148 -229 -148 -288 0 -63 39 -105 106 -115 114 -17 196 50 287 231 49
98 105 252 123 339 55 259 38 370 -71 479 -84 83 -211 129 -390 143 -44 3 -85
7 -92 9 -6 2 -13 2 -15 1z m3755 -2495 c58 -25 66 -47 30 -79 -15 -13 -56 -48
-89 -78 -34 -30 -74 -64 -90 -76 -16 -12 -31 -25 -34 -29 -16 -19 -155 -113
-195 -130 -36 -16 -49 -18 -61 -9 -63 53 104 307 250 382 83 43 124 47 189 19z
m-3723 -318 c0 -42 -120 -293 -164 -344 -28 -32 -56 -44 -57 -24 -5 58 -3 87
8 140 17 78 58 177 100 242 l34 52 40 -26 c21 -14 39 -32 39 -40z m-2320 -720
c193 -156 338 -338 391 -490 24 -71 24 -175 -1 -255 -46 -149 -213 -309 -425
-408 -98 -46 -255 -95 -338 -106 -23 -3 -62 -10 -87 -15 -47 -8 -253 -5 -305
6 -69 14 -142 38 -185 62 -208 114 -261 381 -118 592 17 25 84 98 147 161 114
113 235 206 402 310 119 74 420 221 433 212 6 -5 45 -36 86 -69z m6154 -89
c-314 -675 -595 -1118 -766 -1205 -58 -30 -71 -21 -63 45 24 223 365 742 755
1149 62 65 115 116 117 114 2 -2 -17 -49 -43 -103z"/>
<path d="M18438 16770 c-45 -24 -42 -20 -228 -385 -233 -457 -311 -609 -319
-617 -4 -4 -108 -10 -231 -13 -124 -3 -272 -8 -330 -10 -58 -3 -168 -7 -245
-10 -136 -5 -236 -10 -400 -20 -44 -3 -120 -7 -170 -10 -49 -3 -110 -8 -135
-10 -25 -3 -83 -7 -130 -10 -47 -3 -101 -8 -120 -10 -31 -4 -108 -11 -210 -20
-197 -17 -255 -30 -310 -67 -123 -84 -92 -235 48 -229 54 2 89 11 307 79 151
47 230 70 265 77 8 1 35 6 60 10 25 4 53 9 62 10 9 2 48 6 85 10 37 3 84 8
103 10 31 4 69 7 260 20 148 11 402 22 660 30 113 4 240 8 282 10 89 4 88 19
10 -140 -30 -60 -78 -159 -107 -220 -29 -60 -77 -162 -108 -225 -128 -269
-268 -575 -331 -725 l-38 -90 -105 -65 c-412 -255 -785 -405 -894 -360 -48 20
-60 75 -34 150 12 34 112 191 134 210 12 10 89 116 100 137 19 37 13 99 -11
128 -25 28 -80 42 -124 31 -37 -10 -97 -77 -139 -158 -20 -37 -39 -68 -43 -69
-23 -2 -76 -11 -235 -39 -98 -17 -192 -33 -210 -36 -18 -2 -59 -8 -92 -13 -33
-5 -116 -7 -185 -5 -182 5 -270 34 -439 144 -126 82 -146 90 -215 90 -66 0
-126 -20 -175 -59 l-37 -30 18 72 c25 101 33 207 19 248 -23 69 -128 94 -176
43 -37 -40 -60 -138 -64 -270 -4 -160 -85 -451 -150 -541 -50 -69 -101 -177
-101 -214 0 -62 76 -106 150 -86 63 16 95 62 125 177 33 126 110 249 228 363
79 76 152 118 192 111 25 -4 174 -74 241 -113 34 -20 196 -61 269 -69 152 -15
682 -6 752 14 20 6 21 4 11 -38 -14 -60 -6 -166 17 -212 22 -45 82 -92 139
-107 57 -16 164 -5 271 26 50 14 99 29 110 34 11 5 74 30 140 56 66 26 183 78
261 115 l140 67 -41 -101 c-136 -329 -302 -848 -339 -1061 -47 -266 -40 -457
20 -578 41 -84 102 -114 162 -83 62 32 65 76 17 241 -82 285 -65 474 80 910
139 416 460 1119 869 1899 23 44 78 158 121 251 43 94 85 177 92 185 12 13
127 15 921 15 499 0 952 -3 1007 -7 307 -21 330 -21 369 -3 45 21 58 45 58 99
-1 30 -7 46 -24 60 -21 17 -36 18 -203 12 -99 -4 -441 -9 -760 -11 -319 -3
-741 -6 -938 -8 -333 -4 -357 -3 -352 13 24 74 241 445 375 640 124 180 153
258 121 318 -25 48 -112 64 -173 32z"/>
<path d="M16340 14689 c-39 -15 -83 -84 -83 -131 0 -108 164 -134 227 -36 30
47 24 112 -13 149 -31 31 -79 38 -131 18z"/>
<path d="M18185 14571 c-74 -26 -132 -66 -201 -136 -184 -187 -214 -449 -65
-562 77 -59 190 -76 341 -53 126 20 215 53 453 170 102 50 127 63 422 223 89
48 189 98 223 112 79 32 164 42 182 20 22 -26 5 -123 -49 -282 -55 -163 -63
-196 -63 -284 0 -68 12 -94 51 -107 23 -8 37 -7 63 6 28 14 45 42 113 174 94
185 131 243 184 291 61 55 128 66 255 42 17 -4 107 -35 200 -69 324 -121 355
-127 561 -122 83 3 161 7 175 10 14 2 45 7 70 10 25 3 65 8 89 11 24 3 63 10
85 15 23 5 55 11 72 14 53 10 118 36 141 58 28 26 30 67 3 96 -21 22 -26 22
-100 2 -225 -61 -353 -81 -525 -85 -163 -3 -256 15 -495 95 -232 79 -282 89
-404 87 -91 -2 -108 -5 -163 -32 l-61 -30 0 61 c0 77 -14 123 -50 157 -37 35
-73 47 -144 47 -132 0 -291 -66 -624 -257 -242 -140 -441 -237 -549 -269 -74
-21 -91 -24 -183 -29 -113 -7 -162 26 -162 108 0 45 7 51 81 76 129 42 262
143 300 226 37 80 19 174 -40 207 -38 22 -127 21 -186 -1z m93 -114 c15 -17
-11 -65 -53 -100 -40 -33 -115 -70 -115 -57 0 30 58 112 104 148 33 25 49 28
64 9z"/>
</g>
</svg>
